<svg width="32" height="32" viewBox="0 0 32 32" fill="none" xmlns="http://www.w3.org/2000/svg">
<path d="M26.221 14.0841L21.8857 11.5801L17.4473 16.0185L21.8853 20.4566L26.2357 17.9442C26.9141 17.5321 27.3189 16.8121 27.3189 16.0185C27.3189 15.2249 26.9138 14.5049 26.221 14.0841Z" fill="#FFCE00"/>
<path d="M17.4497 16.0142L5.36041 3.83789C4.93993 4.25837 4.68457 4.82893 4.68457 5.45965V26.5317C4.68457 27.1624 4.93993 27.7329 5.36041 28.1537L17.4497 16.0142Z" fill="#00E2FF"/>
<path d="M17.4526 16.0182L21.891 11.5798L21.898 11.5728L15.9511 8.14881L8.11176 3.54145C7.40584 3.10593 6.54984 3.09089 5.82888 3.49633C5.66376 3.60129 5.51336 3.70657 5.36328 3.84161L17.4526 16.0182Z" fill="#00F076"/>
<path d="M5.36328 28.1568C5.51336 28.2918 5.66376 28.3971 5.82888 28.5021C6.1892 28.6973 6.56488 28.8025 6.94024 28.8025C7.34568 28.8025 7.73608 28.6825 8.09672 28.4723L15.9508 23.887L21.8977 20.463L21.8906 20.456L17.4526 16.0176L5.36328 28.1568Z" fill="#F63448"/>
</svg>
