<svg width="17" height="17" viewBox="0 0 17 17" fill="none" xmlns="http://www.w3.org/2000/svg">
<path d="M11.0893 9.02889C8.17549 9.49336 7.65748 10.0834 7.26897 13.523C7.25602 13.6359 7.08767 13.6359 7.07472 13.523C6.68621 10.0834 6.16821 9.50591 3.25441 9.02889C3.13785 9.01634 3.13785 8.85315 3.25441 8.84059C6.16821 8.37612 6.68621 7.79867 7.07472 4.35909C7.08767 4.24611 7.25602 4.24611 7.26897 4.35909C7.65748 7.79867 8.17549 8.36357 11.0893 8.84059C11.1929 8.85315 11.1929 9.00379 11.0893 9.02889Z" fill="white"/>
<path d="M13.801 4.9787C12.5869 5.17776 12.371 5.43062 12.2092 6.90472C12.2038 6.95314 12.1336 6.95314 12.1282 6.90472C11.9663 5.43062 11.7505 5.18314 10.5364 4.9787C10.4879 4.97332 10.4879 4.90338 10.5364 4.898C11.7505 4.69894 11.9663 4.45146 12.1282 2.97735C12.1336 2.92894 12.2038 2.92894 12.2092 2.97735C12.371 4.45146 12.5869 4.69356 13.801 4.898C13.8441 4.90338 13.8441 4.96794 13.801 4.9787Z" fill="white"/>
</svg>
